<?xml version="1.0" encoding="utf-8"?>
<!DOCTYPE svg PUBLIC "-//W3C//DTD SVG 1.1//EN" "http://www.w3.org/Graphics/SVG/1.1/DTD/svg11.dtd">
<svg version="1.1" id="Layer_1" xmlns="http://www.w3.org/2000/svg" xmlns:xlink="http://www.w3.org/1999/xlink" x="0px" y="0px"
	 width="512px" height="512px" viewBox="0 0 512 512" enable-background="new 0 0 512 512" xml:space="preserve">
<path fill="#C5C5C5" d="M213.781,428.5l-56.578-56.625L294.141,235c43.813,32.75,106.063,29.625,145.938-10.188
	c43.688-43.75,43.688-114.688,0-158.438c-43.75-43.75-114.688-43.75-158.422,0c-39.844,39.875-42.969,102.125-10.172,146
	L43.391,440.5c-5.875,5.875-5.578,15.625,0.688,21.875c6.25,6.25,16.063,6.625,21.938,0.75l23.313-23.375l33.938,34
	c6.25,6.25,16.375,6.25,22.625,0c6.266-6.25,6.266-16.375,0-22.625l-33.938-34l22.625-22.625l56.578,56.625
	c6.25,6.25,16.375,6.25,22.625,0S220.031,434.75,213.781,428.5z M304.266,89c31.188-31.125,82-31.125,113.188,0
	c31.188,31.25,31.188,82,0,113.188s-81.938,31.188-113.188,0C273.094,171,273.094,120.25,304.266,89z"/>
</svg>
