<svg version="1.1" xmlns="http://www.w3.org/2000/svg" width="32" height="32" viewBox="0 0 32 32">
<path fill="#C5C5C5" d="M32 24.578v7.422h-8v-4h-4v-4h-4v-3.234q-1.156 0.609-2.422 0.922t-2.578 0.313q-1.516 0-2.922-0.391t-2.625-1.109-2.227-1.727-1.727-2.227-1.109-2.625-0.391-2.922 0.391-2.922 1.109-2.625 1.727-2.227 2.227-1.727 2.625-1.109 2.922-0.391 2.922 0.391 2.625 1.109 2.227 1.727 1.727 2.227 1.109 2.625 0.391 2.922q0 0.797-0.125 1.578t-0.359 1.531zM30 25.422l-10.781-10.781q0.344-0.891 0.563-1.789t0.219-1.852q0-1.859-0.711-3.5t-1.93-2.859-2.859-1.93-3.5-0.711-3.5 0.711-2.859 1.93-1.93 2.859-0.711 3.5 0.711 3.5 1.93 2.859 2.859 1.93 3.5 0.711q1.516 0 2.977-0.516t2.633-1.484h1.391v4h4v4h4v4h4v-4.578zM8 6q0.422 0 0.781 0.156t0.633 0.43 0.43 0.633 0.156 0.781-0.156 0.781-0.43 0.633-0.633 0.43-0.781 0.156-0.781-0.156-0.633-0.43-0.43-0.633-0.156-0.781 0.156-0.781 0.43-0.633 0.633-0.43 0.781-0.156z"></path>
</svg>
