<?xml version="1.0" encoding="iso-8859-1"?>
<!-- Generator: Adobe Illustrator 19.0.0, SVG Export Plug-In . SVG Version: 6.00 Build 0)  -->
<svg version="1.1" id="Layer_1" xmlns="http://www.w3.org/2000/svg" xmlns:xlink="http://www.w3.org/1999/xlink" x="0px" y="0px"
	 viewBox="0 0 512.005 512.005" style="enable-background:new 0 0 512.005 512.005;" xml:space="preserve">
<polygon style="fill:#FFAD41;" points="77.218,114.438 0,256.004 77.218,397.57 512,397.57 512,114.438 "/>
<rect x="257.186" y="114.435" style="fill:#FF9811;" width="254.819" height="283.132"/>
<g>
	<path style="fill:#FFFFFF;" d="M164.623,229.647c-3.152-3.362-7.125-6.061-11.805-8.016c-4.673-1.954-10.135-2.942-16.236-2.942
		h-28.958v74.631h28.959c5.62,0,10.799-0.9,15.392-2.674c4.606-1.778,8.612-4.333,11.906-7.589
		c3.293-3.261,5.868-7.233,7.649-11.812c1.776-4.561,2.676-9.724,2.676-15.342c0-5.068-0.811-9.91-2.411-14.396
		C170.186,236.994,167.773,233.003,164.623,229.647z M143.035,272.407c-1.877,0.875-4.048,1.321-6.452,1.321h-6.818v-35.449h6.818
		c2.341,0,4.483,0.43,6.365,1.276c1.874,0.845,3.472,2.031,4.75,3.526c1.288,1.506,2.295,3.367,2.996,5.526
		c0.708,2.188,1.066,4.641,1.066,7.295c0,2.592-0.343,5.017-1.019,7.209c-0.667,2.159-1.66,4.053-2.954,5.63
		C146.505,270.302,144.907,271.534,143.035,272.407z"/>
	<path style="fill:#FFFFFF;" d="M274.601,218.688l-25.739,73.988l-15.391-26.78c3.008-2.318,5.418-5.247,7.17-8.719
		c1.907-3.776,2.873-7.907,2.873-12.283c0-3.189-0.644-6.401-1.917-9.547c-1.27-3.137-3.04-5.962-5.259-8.39
		c-2.224-2.437-4.928-4.444-8.035-5.964c-3.135-1.531-6.592-2.305-10.281-2.305H183.66v74.631h22.141v-22.219h5.652l12.741,22.219
		h24.442h0.595h22.122l4.28-14.168h17.588l4.383,14.168h22.609l-25.859-74.631H274.601z M205.802,238.28h10.895
		c0.888,0,1.844,0.546,2.837,1.624c1.017,1.104,1.533,2.783,1.533,4.99c0,2.179-0.451,3.866-1.342,5.015
		c-0.834,1.077-1.658,1.599-2.52,1.599h-11.405V238.28H205.802z M289.397,263.637h-10.125l5.179-17.267L289.397,263.637z"/>
	<polygon style="fill:#FFFFFF;" points="326.561,293.32 348.701,293.32 348.701,266.411 372.96,266.411 372.96,248.043 
		348.701,248.043 348.701,238.28 378.465,238.28 378.465,218.688 326.561,218.688 	"/>
	<polygon style="fill:#FFFFFF;" points="385.883,218.688 385.883,238.28 406.777,238.28 406.777,293.32 428.919,293.32 
		428.919,238.28 449.711,238.28 449.711,218.688 	"/>
</g>
<g>
</g>
<g>
</g>
<g>
</g>
<g>
</g>
<g>
</g>
<g>
</g>
<g>
</g>
<g>
</g>
<g>
</g>
<g>
</g>
<g>
</g>
<g>
</g>
<g>
</g>
<g>
</g>
<g>
</g>
</svg>
