<svg version="1.1" xmlns="http://www.w3.org/2000/svg" width="32" height="32" viewBox="0 0 32 32">
<path fill="#424242" d="M20.266 0.594q2.594 0.703 4.75 2.195t3.711 3.531 2.414 4.516 0.859 5.164q0 2.203-0.57 4.25t-1.609 3.828-2.5 3.242-3.242 2.5-3.828 1.609-4.25 0.57-4.25-0.57-3.828-1.609-3.242-2.5-2.5-3.242-1.609-3.82-0.57-4.258q0-2.188 0.578-4.25t1.648-3.883 2.602-3.313 3.453-2.555h-4.281v-2h8v8h-2v-4.641q-1.828 0.875-3.305 2.195t-2.523 2.969-1.609 3.555-0.563 3.922q0 1.922 0.5 3.711t1.414 3.344 2.195 2.836 2.836 2.195 3.336 1.414 3.719 0.5q1.922 0 3.711-0.5t3.344-1.414 2.836-2.195 2.195-2.836 1.414-3.336 0.5-3.719q0-2.344-0.758-4.516t-2.117-3.953-3.242-3.086-4.148-1.93l0.531-1.922z"></path>
</svg>
