<svg width="674" height="537" 
  xmlns="http://www.w3.org/2000/svg" 
  xmlns:xlink="http://www.w3.org/1999/xlink" overflow="hidden">
  <defs>
    <clipPath id="clip0">
      <path d="M290 64 964 64 964 601 290 601Z" fill-rule="evenodd" clip-rule="evenodd"/>
    </clipPath>
  </defs>
  <g clip-path="url(#clip0)" transform="translate(-290 -64)">
    <path d="M650 580 367.501 580C336.296 580 311 554.727 311 523.552L311 141.449C311 110.273 336.296 85 367.501 85L650 85" stroke="#424242" stroke-width="40" stroke-miterlimit="8" fill="none" fill-rule="evenodd"/>
    <path fill="#424242" d="M660 95C660 100.523 655.523 105 650 105 644.477 105 640 100.523 640 95 640 89.4772 644.477 85 650 85 655.523 85 660 89.4772 660 95Z" fill-rule="evenodd"/>
    <path fill="#424242" d="M660 75C660 80.5229 655.523 85 650 85 644.477 85 640 80.5229 640 75 640 69.4772 644.477 65 650 65 655.523 65 660 69.4772 660 75Z" fill-rule="evenodd"/>
    <rect fill="#424242" x="640" y="75" width="20" height="20"/>
    <path fill="#424242" d="M660 590C660 595.523 655.523 600 650 600 644.477 600 640 595.523 640 590 640 584.477 644.477 580 650 580 655.523 580 660 584.477 660 590Z" fill-rule="evenodd"/>
    <path fill="#424242" d="M660 570C660 575.523 655.523 580 650 580 644.477 580 640 575.523 640 570 640 564.477 644.477 560 650 560 655.523 560 660 564.477 660 570Z" fill-rule="evenodd"/>
    <rect fill="#424242" x="640" y="570" width="20" height="20"/>
    <path d="M709.435 565.891 942.839 332.487" stroke="#424242" stroke-width="40" stroke-linecap="round" stroke-miterlimit="8" fill="none" fill-rule="evenodd"/>
    <path d="M709.556 98.9612 942.961 332.366" stroke="#424242" stroke-width="40" stroke-linecap="round" stroke-miterlimit="8" fill="none" fill-rule="evenodd"/>
    <path d="M516 332 943.128 332" stroke="#424242" stroke-width="40" stroke-linecap="round" stroke-miterlimit="8" fill="none" fill-rule="evenodd"/>
  </g>
</svg>