<svg version="1.1" xmlns="http://www.w3.org/2000/svg" width="32" height="32" viewBox="0 0 32 32">
<path fill="#424242" d="M16.25 14.781q1.859 0.719 3.391 2t2.563 2.984l-1.453 1.453q-0.656-1.203-1.594-2.164t-2.070-1.641-2.422-1.047-2.664-0.367-2.656 0.359-2.391 1.008-2.023 1.563-1.563 2.023-1.008 2.391-0.359 2.656h-2q0-1.875 0.555-3.609t1.57-3.203 2.445-2.609 3.18-1.797q-1.766-1.156-2.758-2.906t-0.992-3.875q0-1.656 0.625-3.117t1.711-2.547 2.547-1.711 3.117-0.625 3.117 0.625 2.547 1.711 1.711 2.547 0.625 3.117q0 1.031-0.258 2.016t-0.742 1.859-1.18 1.617-1.57 1.289zM6 8q0 1.25 0.469 2.336t1.289 1.906 1.906 1.289 2.336 0.469q1.234 0 2.328-0.469t1.914-1.289 1.289-1.906 0.469-2.336q0-1.234-0.469-2.328t-1.289-1.914-1.914-1.289-2.328-0.469q-1.25 0-2.336 0.469t-1.906 1.289-1.289 1.914-0.469 2.328zM31.953 23.469l-3.531 3.531 3.531 3.547-1.406 1.406-3.547-3.531-3.547 3.547-1.406-1.422 3.547-3.547-3.547-3.547 1.406-1.406 3.547 3.547 3.547-3.547z"></path>
</svg>
