<svg version="1.1" xmlns="http://www.w3.org/2000/svg" width="32" height="32" viewBox="0 0 32 32">
<path fill="#424242" d="M20.781 18.797q2.125 0.734 3.836 2.055t2.906 3.055 1.836 3.797 0.641 4.297h-2q0-2.563-0.914-4.758t-2.523-3.805-3.805-2.523-4.758-0.914q-1.672 0-3.219 0.422t-2.883 1.195-2.422 1.859-1.859 2.422-1.195 2.883-0.422 3.219h-2q0-2.25 0.656-4.305t1.859-3.773 2.914-3.031 3.82-2.078q-1.219-0.656-2.188-1.594t-1.648-2.086-1.047-2.453-0.367-2.68q0-2.078 0.781-3.898t2.141-3.18 3.18-2.141 3.898-0.781 3.898 0.781 3.18 2.141 2.141 3.18 0.781 3.898q0 1.375-0.367 2.672t-1.047 2.438-1.641 2.086-2.164 1.602zM8 10q0 1.656 0.633 3.109t1.719 2.539 2.539 1.719 3.109 0.633 3.109-0.633 2.539-1.719 1.719-2.539 0.633-3.109-0.633-3.109-1.719-2.539-2.539-1.719-3.109-0.633-3.109 0.633-2.539 1.719-1.719 2.539-0.633 3.109z"></path>
</svg>
